# xmcd
#
# Track frame offsets:
#	150
#	19131
#	39348
#	60589
#	80659
#	98667
#	114423
#	133147
#	165191
#	187346
#	202936
#	220833
#	241093
#
# Disc length: 3584 seconds
#
# Revision: 0
# Processed by: cddbd v1.5.2PL0 Copyright (c) Steve Scherf et al.
# Submitted via: audiograbber 1.83.01
#
DISCID=a70dfe0d
DTITLE=Frontline - Heroes (Remastered 2018)
DYEAR=1997
DGENRE=Hard Rock
TTITLE0=Our Love
TTITLE1=Heroes
TTITLE2=Moving Closer
TTITLE3=Break My Heart Again
TTITLE4=On The Run
TTITLE5=Someone To Love
TTITLE6=Sign Of The Light
TTITLE7=Pain Will Last Forever
TTITLE8=Get To You
TTITLE9=I Must Be Dreaming
TTITLE10=All I Wanted
TTITLE11=Tonight We Set....
TTITLE12=Man In Motion
EXTD=
EXTT0=
EXTT1=
EXTT2=
EXTT3=
EXTT4=
EXTT5=
EXTT6=
EXTT7=
EXTT8=
EXTT9=
EXTT10=
EXTT11=
EXTT12=
PLAYORDER=
